<svg width="24" height="13" viewBox="0 0 24 13" fill="none" xmlns="http://www.w3.org/2000/svg">
<path d="M0.64 9.056V8.224L6.576 0.799999H7.856L1.968 8.224L1.344 8.032H10.352V9.056H0.64ZM6.96 12V9.056L6.992 8.032V5.44H8.112V12H6.96ZM12.5866 12.08C12.352 12.08 12.1493 11.9947 11.9786 11.824C11.8186 11.6533 11.7386 11.4453 11.7386 11.2C11.7386 10.944 11.8186 10.736 11.9786 10.576C12.1493 10.416 12.352 10.336 12.5866 10.336C12.8213 10.336 13.0186 10.416 13.1786 10.576C13.3493 10.736 13.4346 10.944 13.4346 11.2C13.4346 11.4453 13.3493 11.6533 13.1786 11.824C13.0186 11.9947 12.8213 12.08 12.5866 12.08ZM19.5255 12.096C18.6295 12.096 17.8562 11.968 17.2055 11.712C16.5655 11.456 16.0695 11.088 15.7175 10.608C15.3762 10.1173 15.2055 9.54133 15.2055 8.88C15.2055 8.24 15.3708 7.696 15.7015 7.248C16.0428 6.78933 16.5335 6.43733 17.1735 6.192C17.8242 5.94667 18.6082 5.824 19.5255 5.824C20.4322 5.824 21.2108 5.94667 21.8615 6.192C22.5122 6.43733 23.0082 6.78933 23.3495 7.248C23.7015 7.696 23.8775 8.24 23.8775 8.88C23.8775 9.54133 23.7015 10.1173 23.3495 10.608C22.9975 11.088 22.4962 11.456 21.8455 11.712C21.1948 11.968 20.4215 12.096 19.5255 12.096ZM19.5255 11.12C20.5175 11.12 21.2908 10.9173 21.8455 10.512C22.4108 10.1067 22.6935 9.55733 22.6935 8.864C22.6935 8.17067 22.4108 7.62667 21.8455 7.232C21.2908 6.82667 20.5175 6.624 19.5255 6.624C18.5335 6.624 17.7602 6.82667 17.2055 7.232C16.6508 7.62667 16.3735 8.17067 16.3735 8.864C16.3735 9.55733 16.6508 10.1067 17.2055 10.512C17.7602 10.9173 18.5335 11.12 19.5255 11.12ZM19.5255 6.48C18.6935 6.48 17.9842 6.368 17.3975 6.144C16.8215 5.92 16.3788 5.6 16.0695 5.184C15.7602 4.75733 15.6055 4.25067 15.6055 3.664C15.6055 3.04533 15.7655 2.51733 16.0855 2.08C16.4162 1.632 16.8748 1.29067 17.4615 1.056C18.0482 0.821333 18.7362 0.704 19.5255 0.704C20.3148 0.704 21.0028 0.821333 21.5895 1.056C22.1868 1.29067 22.6508 1.632 22.9815 2.08C23.3122 2.51733 23.4775 3.04533 23.4775 3.664C23.4775 4.25067 23.3228 4.75733 23.0135 5.184C22.7042 5.6 22.2508 5.92 21.6535 6.144C21.0668 6.368 20.3575 6.48 19.5255 6.48ZM19.5255 5.712C20.4002 5.712 21.0828 5.53067 21.5735 5.168C22.0642 4.80533 22.3095 4.32 22.3095 3.712C22.3095 3.072 22.0535 2.576 21.5415 2.224C21.0402 1.86133 20.3682 1.68 19.5255 1.68C18.6828 1.68 18.0108 1.86133 17.5095 2.224C17.0082 2.576 16.7575 3.06667 16.7575 3.696C16.7575 4.31467 16.9975 4.80533 17.4775 5.168C17.9682 5.53067 18.6508 5.712 19.5255 5.712Z" fill="#262729"/>
</svg>
